<?xml version="1.0" encoding="UTF-8"?>
<svg width="217px" height="64px" viewBox="0 0 217 64" version="1.1" xmlns="http://www.w3.org/2000/svg" xmlns:xlink="http://www.w3.org/1999/xlink">
    <!-- Generator: Sketch 53 (72520) - https://sketchapp.com -->
    <title>HD_RGB</title>
    <desc>Created with Sketch.</desc>
    <defs>
        <polygon id="path-1" points="0 0.257 52.484 0.257 52.484 64 0 64"></polygon>
    </defs>
    <g id="HD_RGB" stroke="none" stroke-width="1" fill="none" fill-rule="evenodd">
        <g id="Group-3">
            <mask id="mask-2" fill="white">
                <use xlink:href="#path-1"></use>
            </mask>
            <g id="Clip-2"></g>
            <path d="M45.771,47.462 L26.357,56.707 C26.284,56.741 26.2,56.741 26.127,56.707 L6.713,47.462 C6.62,47.418 6.56,47.324 6.56,47.22 L6.56,7.086 C6.56,6.938 6.681,6.818 6.829,6.818 L11.759,6.818 C11.908,6.818 12.028,6.938 12.028,7.086 L12.028,43.81 C12.028,43.913 12.087,44.007 12.18,44.052 L20.392,47.962 C20.569,48.046 20.775,47.917 20.775,47.72 L20.775,26.767 C20.775,26.619 20.895,26.499 21.043,26.499 L31.441,26.499 C31.589,26.499 31.709,26.619 31.709,26.767 L31.709,47.72 C31.709,47.917 31.914,48.046 32.092,47.962 L40.303,44.052 C40.397,44.007 40.456,43.913 40.456,43.81 L40.456,7.086 C40.456,6.938 40.576,6.818 40.725,6.818 L45.655,6.818 C45.803,6.818 45.923,6.938 45.923,7.086 L45.923,47.22 C45.923,47.324 45.864,47.418 45.771,47.462 Z M31.709,0.525 L31.709,17.484 C31.709,17.632 31.589,17.752 31.441,17.752 L21.043,17.752 C20.895,17.752 20.775,17.632 20.775,17.484 L20.775,0.525 C20.775,0.377 20.655,0.257 20.507,0.257 L0.268,0.257 C0.12,0.257 0,0.377 0,0.525 L0,51.363 C0,51.467 0.06,51.561 0.153,51.605 L26.127,63.974 C26.2,64.009 26.284,64.009 26.357,63.974 L52.331,51.605 C52.424,51.561 52.484,51.467 52.484,51.363 L52.484,0.525 C52.484,0.377 52.364,0.257 52.216,0.257 L31.977,0.257 C31.829,0.257 31.709,0.377 31.709,0.525 L31.709,0.525 Z" id="Fill-1" fill="#00D6A5" mask="url(#mask-2)"></path>
        </g>
        <path d="M79.024,23.329 L79.024,15.655 C79.024,15.524 78.918,15.418 78.787,15.418 L68.432,15.418 C68.301,15.418 68.195,15.524 68.195,15.655 L68.195,23.329 C68.195,23.46 68.089,23.566 67.958,23.566 L63.55,23.566 C63.419,23.566 63.313,23.46 63.313,23.329 L63.313,0.873 C63.313,0.742 63.419,0.636 63.55,0.636 L67.958,0.636 C68.089,0.636 68.195,0.742 68.195,0.873 L68.195,10.884 C68.195,11.015 68.301,11.121 68.432,11.121 L78.787,11.121 C78.918,11.121 79.024,11.015 79.024,10.884 L79.024,0.873 C79.024,0.742 79.13,0.636 79.261,0.636 L83.703,0.636 C83.834,0.636 83.94,0.742 83.94,0.873 L83.94,23.329 C83.94,23.46 83.834,23.566 83.703,23.566 L79.261,23.566 C79.13,23.566 79.024,23.46 79.024,23.329" id="Fill-4" fill="#211F37"></path>
        <path d="M88.444,23.328 L88.444,0.873 C88.444,0.742 88.551,0.636 88.682,0.636 L93.088,0.636 C93.22,0.636 93.326,0.742 93.326,0.873 L93.326,23.328 C93.326,23.46 93.22,23.566 93.088,23.566 L88.682,23.566 C88.551,23.566 88.444,23.46 88.444,23.328" id="Fill-5" fill="#211F37"></path>
        <path d="M96.764,12.118 C96.764,4.864 102.264,0.257 108.968,0.257 C113.619,0.257 116.577,2.537 118.316,5.163 C118.393,5.279 118.351,5.437 118.229,5.503 L114.589,7.478 C114.482,7.536 114.351,7.502 114.281,7.401 C113.223,5.864 111.318,4.589 108.968,4.589 C104.808,4.589 101.783,7.786 101.783,12.118 C101.783,16.45 104.808,19.647 108.968,19.647 C110.941,19.647 112.816,18.802 113.771,17.964 C113.823,17.919 113.85,17.854 113.85,17.785 L113.85,15.621 C113.85,15.49 113.744,15.384 113.613,15.384 L109.73,15.384 C109.599,15.384 109.493,15.278 109.493,15.147 L109.493,11.358 C109.493,11.227 109.599,11.121 109.73,11.121 L118.495,11.121 C118.625,11.121 118.732,11.227 118.732,11.358 L118.732,19.588 C118.732,19.648 118.709,19.706 118.669,19.75 C116.336,22.324 113.091,24.013 108.968,24.013 C102.264,24.013 96.764,19.338 96.764,12.118" id="Fill-6" fill="#211F37"></path>
        <path d="M138.328,23.329 L138.328,15.655 C138.328,15.524 138.222,15.418 138.091,15.418 L127.735,15.418 C127.604,15.418 127.498,15.524 127.498,15.655 L127.498,23.329 C127.498,23.46 127.392,23.566 127.262,23.566 L122.853,23.566 C122.723,23.566 122.617,23.46 122.617,23.329 L122.617,0.872 C122.617,0.742 122.723,0.636 122.853,0.636 L127.262,0.636 C127.392,0.636 127.498,0.742 127.498,0.872 L127.498,10.884 C127.498,11.015 127.604,11.121 127.735,11.121 L138.091,11.121 C138.222,11.121 138.328,11.015 138.328,10.884 L138.328,0.872 C138.328,0.742 138.434,0.636 138.564,0.636 L143.007,0.636 C143.138,0.636 143.244,0.742 143.244,0.872 L143.244,23.329 C143.244,23.46 143.138,23.566 143.007,23.566 L138.564,23.566 C138.434,23.566 138.328,23.46 138.328,23.329" id="Fill-7" fill="#211F37"></path>
        <path d="M161.19,8.027 C161.19,6.102 159.712,4.933 157.752,4.933 L152.867,4.933 C152.736,4.933 152.63,5.039 152.63,5.171 L152.63,10.883 C152.63,11.015 152.736,11.121 152.867,11.121 L157.752,11.121 C159.712,11.121 161.19,9.952 161.19,8.027 Z M160.641,23.443 L156.273,15.541 C156.231,15.465 156.151,15.418 156.065,15.418 L152.867,15.418 C152.736,15.418 152.63,15.525 152.63,15.656 L152.63,23.328 C152.63,23.459 152.523,23.566 152.392,23.566 L147.986,23.566 C147.854,23.566 147.748,23.459 147.748,23.328 L147.748,0.873 C147.748,0.742 147.854,0.636 147.986,0.636 L158.474,0.636 C163.253,0.636 166.175,3.764 166.175,8.027 C166.175,11.919 163.834,14.07 161.458,14.755 C161.307,14.798 161.235,14.968 161.315,15.103 L166.101,23.207 C166.194,23.366 166.08,23.566 165.896,23.566 L160.849,23.566 C160.762,23.566 160.683,23.519 160.641,23.443 L160.641,23.443 Z" id="Fill-8" fill="#211F37"></path>
        <path d="M169.854,23.329 L169.854,0.873 C169.854,0.742 169.96,0.636 170.091,0.636 L174.499,0.636 C174.629,0.636 174.735,0.742 174.735,0.873 L174.735,23.329 C174.735,23.46 174.629,23.566 174.499,23.566 L170.091,23.566 C169.96,23.566 169.854,23.46 169.854,23.329" id="Fill-9" fill="#211F37"></path>
        <path d="M177.844,20.169 L180.211,16.85 C180.296,16.73 180.465,16.718 180.57,16.821 C182.189,18.416 184.624,19.716 187.662,19.716 C190.343,19.716 191.65,18.478 191.65,17.172 C191.65,13.115 178.448,15.9 178.448,7.271 C178.448,3.455 181.749,0.292 187.146,0.292 C190.704,0.292 193.671,1.34 195.921,3.341 C196.014,3.423 196.026,3.565 195.951,3.664 L193.522,6.862 C193.439,6.971 193.283,6.984 193.179,6.894 C191.346,5.293 188.958,4.555 186.699,4.555 C184.602,4.555 183.433,5.483 183.433,6.858 C183.433,10.502 196.6,8.061 196.6,16.622 C196.6,20.816 193.609,23.978 187.421,23.978 C183.118,23.978 179.999,22.565 177.87,20.478 C177.786,20.396 177.777,20.264 177.844,20.169" id="Fill-10" fill="#211F37"></path>
        <path d="M199.901,23.33 L199.901,0.871 C199.901,0.741 200.006,0.636 200.136,0.636 L215.892,0.636 C216.022,0.636 216.127,0.741 216.127,0.871 L216.127,4.697 C216.127,4.828 216.022,4.933 215.892,4.933 L205.018,4.933 C204.888,4.933 204.783,5.038 204.783,5.168 L204.783,10.886 C204.783,11.016 204.888,11.121 205.018,11.121 L213.958,11.121 C214.088,11.121 214.194,11.227 214.194,11.357 L214.194,15.183 C214.194,15.313 214.088,15.418 213.958,15.418 L205.018,15.418 C204.888,15.418 204.783,15.524 204.783,15.654 L204.783,19.033 C204.783,19.163 204.888,19.269 205.018,19.269 L215.892,19.269 C216.022,19.269 216.127,19.374 216.127,19.504 L216.127,23.33 C216.127,23.461 216.022,23.566 215.892,23.566 L200.136,23.566 C200.006,23.566 199.901,23.461 199.901,23.33" id="Fill-11" fill="#211F37"></path>
        <path d="M79.786,39.943 C79.786,35.886 77.311,32.757 72.601,32.757 L68.431,32.757 C68.301,32.757 68.195,32.863 68.195,32.994 L68.195,46.857 C68.195,46.988 68.301,47.093 68.431,47.093 L72.601,47.093 C77.139,47.093 79.786,43.827 79.786,39.943 Z M63.313,51.154 L63.313,28.697 C63.313,28.566 63.419,28.46 63.549,28.46 L72.601,28.46 C79.786,28.46 84.771,33.032 84.771,39.943 C84.771,46.852 79.786,51.391 72.601,51.391 L63.549,51.391 C63.419,51.391 63.313,51.285 63.313,51.154 L63.313,51.154 Z" id="Fill-12" fill="#211F37"></path>
        <path d="M88.444,51.153 L88.444,28.697 C88.444,28.566 88.55,28.46 88.681,28.46 L93.089,28.46 C93.22,28.46 93.326,28.566 93.326,28.697 L93.326,51.153 C93.326,51.284 93.22,51.391 93.089,51.391 L88.681,51.391 C88.55,51.391 88.444,51.284 88.444,51.153" id="Fill-13" fill="#211F37"></path>
        <path d="M96.764,39.943 C96.764,32.689 102.264,28.082 108.968,28.082 C113.619,28.082 116.577,30.362 118.316,32.987 C118.393,33.104 118.351,33.262 118.229,33.328 L114.589,35.302 C114.482,35.36 114.351,35.326 114.281,35.226 C113.222,33.688 111.318,32.413 108.968,32.413 C104.808,32.413 101.783,35.611 101.783,39.943 C101.783,44.274 104.808,47.471 108.968,47.471 C110.941,47.471 112.816,46.626 113.771,45.789 C113.823,45.744 113.85,45.678 113.85,45.61 L113.85,43.446 C113.85,43.315 113.744,43.208 113.612,43.208 L109.73,43.208 C109.599,43.208 109.493,43.102 109.493,42.971 L109.493,39.183 C109.493,39.052 109.599,38.946 109.73,38.946 L118.494,38.946 C118.625,38.946 118.732,39.052 118.732,39.183 L118.732,47.413 C118.732,47.472 118.709,47.531 118.669,47.575 C116.336,50.149 113.091,51.837 108.968,51.837 C102.264,51.837 96.764,47.162 96.764,39.943" id="Fill-14" fill="#211F37"></path>
        <path d="M122.617,51.155 L122.617,28.696 C122.617,28.566 122.722,28.46 122.852,28.46 L127.263,28.46 C127.393,28.46 127.498,28.566 127.498,28.696 L127.498,51.155 C127.498,51.285 127.393,51.391 127.263,51.391 L122.852,51.391 C122.722,51.391 122.617,51.285 122.617,51.155" id="Fill-15" fill="#211F37"></path>
        <path d="M137.331,51.155 L137.331,32.993 C137.331,32.863 137.225,32.757 137.095,32.757 L130.863,32.757 C130.732,32.757 130.627,32.652 130.627,32.522 L130.627,28.696 C130.627,28.566 130.732,28.46 130.863,28.46 L148.68,28.46 C148.811,28.46 148.916,28.566 148.916,28.696 L148.916,32.522 C148.916,32.652 148.811,32.757 148.68,32.757 L142.483,32.757 C142.352,32.757 142.247,32.863 142.247,32.993 L142.247,51.155 C142.247,51.285 142.141,51.391 142.011,51.391 L137.566,51.391 C137.436,51.391 137.331,51.285 137.331,51.155" id="Fill-16" fill="#211F37"></path>
        <path d="M159.11,33.959 L155.872,42.925 C155.816,43.08 155.931,43.243 156.095,43.243 L162.571,43.243 C162.735,43.243 162.849,43.08 162.794,42.925 L159.556,33.959 C159.481,33.751 159.186,33.751 159.11,33.959 Z M165.602,51.235 L164.306,47.696 C164.272,47.602 164.183,47.54 164.084,47.54 L154.581,47.54 C154.482,47.54 154.394,47.601 154.359,47.694 L153.031,51.237 C152.996,51.329 152.907,51.391 152.809,51.391 L147.749,51.391 C147.583,51.391 147.468,51.223 147.528,51.068 L156.215,28.612 C156.25,28.521 156.338,28.46 156.436,28.46 L162.23,28.46 C162.328,28.46 162.416,28.521 162.451,28.612 L171.104,51.068 C171.164,51.224 171.049,51.391 170.883,51.391 L165.824,51.391 C165.725,51.391 165.636,51.328 165.602,51.235 L165.602,51.235 Z" id="Fill-17" fill="#211F37"></path>
        <path d="M173.36,51.155 L173.36,28.696 C173.36,28.566 173.466,28.46 173.596,28.46 L178.006,28.46 C178.136,28.46 178.242,28.566 178.242,28.696 L178.242,46.857 C178.242,46.988 178.347,47.093 178.478,47.093 L187.7,47.093 C187.831,47.093 187.936,47.199 187.936,47.329 L187.936,51.155 C187.936,51.285 187.831,51.391 187.7,51.391 L173.596,51.391 C173.466,51.391 173.36,51.285 173.36,51.155" id="Fill-18" fill="#211F37"></path>
    </g>
</svg>